<?xml version="1.0" encoding="UTF-8"?>
<svg id="Layer_2" data-name="Layer 2" xmlns="http://www.w3.org/2000/svg" viewBox="0 0 440.62 440">
  <defs>
    <style>
      .cls-1 {
        fill: #1a1a1a;
      }
    </style>
  </defs>
  <g id="Layer_1-2" data-name="Layer 1">
    <g>
      <path class="cls-1" d="M380.62,0h-160c-.1,0-.2.01-.31.02-.1,0-.2-.02-.31-.02H60C26.92,0,0,26.92,0,60v320c0,.43.01.86.04,1.29,1.05,16.21,6.91,30.21,16.97,40.56,4.05,4.58,18.16,18.14,42.99,18.14,64.87,0,123.82-41.43,160.31-67.88,36.49,26.45,95.44,67.88,160.31,67.88,24.83,0,38.94-13.56,42.99-18.14,10.05-10.35,15.92-24.35,16.97-40.56.03-.43.04-.86.04-1.29V60c0-33.08-26.92-60-60-60ZM220.31,172.51s0,0,0,0c0,0,0,0,0,0,14.4-17.11,33.04-38.81,66.9-31.47,26.94,5.84,37.72,38.78,34.6,67.61-5.08,46.92-62.97,87.63-101.28,114.57-.07.05-.15.1-.22.16-.07-.05-.15-.1-.22-.16-38.31-26.94-96.19-67.65-101.28-114.57-3.12-28.83,7.66-61.77,34.6-67.61,33.86-7.34,52.49,14.36,66.9,31.47ZM400.62,379.28c-.37,4.6-1.71,10.71-5.86,14.86-.87.87-.91.77-1.46,1.58-1.09,1.03-5.1,4.28-12.69,4.28-46.43,0-92.96-29.15-125.57-52.18,43.44-30.94,100.08-75.36,106.53-134.85,2.57-23.72-1.47-47.52-11.36-67.02-11.59-22.84-30.72-38.41-53.87-43.84-33.17-7.78-58.03,6.27-76.04,22.91-18.01-16.65-42.87-30.7-76.04-22.91-23.14,5.43-42.27,21-53.87,43.84-9.9,19.5-13.93,43.3-11.36,67.02,6.45,59.49,63.08,103.92,106.53,134.85-32.61,23.04-79.14,52.18-125.57,52.18-7.59,0-11.6-3.25-12.69-4.28-.55-.81-.58-.7-1.46-1.58-4.15-4.15-5.49-10.26-5.86-14.86V60c0-11.03,8.97-20,20-20h160c.1,0,.2-.01.31-.02.1,0,.2.02.31.02h160c11.03,0,20,8.97,20,20v319.28Z"/>
      <path class="cls-1" d="M220.31,204.36s0,0,0,0c0,0,0,0,0,0,7.06-7.7,16.19-17.46,32.79-14.16,13.2,2.63,18.49,17.45,16.96,30.42-2.49,21.11-30.86,39.42-49.63,51.54-.04.02-.07.05-.11.07-.04-.02-.07-.05-.11-.07-18.77-12.12-47.14-30.43-49.63-51.54-1.53-12.97,3.75-27.79,16.96-30.42,16.59-3.3,25.73,6.46,32.79,14.16Z"/>
    </g>
  </g>
</svg>